<?xml version="1.0" encoding="UTF-8" standalone="no"?>
<svg
   role="img"
   aria-labelledby="title desc"
   viewBox="0 0 950 230"
   version="1.1"
   id="svg12"
   xmlns="http://www.w3.org/2000/svg"
   xmlns:svg="http://www.w3.org/2000/svg">
  <defs
     id="defs16" />
  <title
     id="title">CSROCC</title>
  <desc
     id="desc">Cyber Service Resilience Operations Command Center</desc>
  <g
     fill="#f8fafc"
     fill-rule="evenodd"
     id="g8">
    <path
       d="M 112.247,33.04 C 88.78,37.257 70.055,53.497 61.876,76.725 c -2.863,8.13 -3.579,23.691 -1.498,32.518 5.24,22.225 23.186,40.424 45.622,46.269 10.036,2.614 28.068,1.674 38,-1.983 13.565,-4.994 25.935,-14.963 32.735,-26.382 l 2.235,-3.753 -10.45,-4.292 -10.45,-4.291 -5.578,6.025 c -6.545,7.069 -12.107,10.568 -20.112,12.653 -7.811,2.035 -13.905,1.902 -21.587,-0.471 C 98.91,129.347 88.772,119.75 84.368,108 c -2.6,-6.937 -2.31,-19.985 0.61,-27.5 3.249,-8.358 14.093,-19.226 22.522,-22.571 8.503,-3.374 24.67,-3.447 31.905,-0.144 2.697,1.232 4.989,2.121 5.094,1.977 0.104,-0.144 3.072,-4.459 6.595,-9.59 7.487,-10.901 7.695,-10.324 -5.275,-14.611 -9.157,-3.026 -24.392,-4.17 -33.572,-2.521 M 240,38.752 c -18.528,5.02 -27.854,17.263 -26.785,35.163 0.536,8.963 2.826,14.082 8.653,19.347 6.8,6.143 13,8.487 36.438,13.773 7.593,1.713 15.243,3.716 17,4.452 7.685,3.22 10.566,10.491 6.522,16.459 -3.826,5.646 -7.964,7.424 -18.342,7.878 -14.536,0.635 -25.812,-2.794 -36.745,-11.176 -2.617,-2.006 -4.949,-3.648 -5.182,-3.648 -0.232,0 -3.229,3.887 -6.659,8.639 l -6.236,8.638 3.418,2.874 c 5.124,4.309 18.393,10.589 27.418,12.978 11.675,3.091 30.344,3.138 40.122,0.102 C 296.701,148.929 306,137.214 306,121 306,107.991 300.11,98.531 288.607,93.062 285.248,91.466 276.425,88.732 269,86.987 c -20.928,-4.916 -26.785,-6.821 -30.06,-9.773 -3.966,-3.576 -4.751,-8.57 -2.032,-12.915 2.805,-4.483 7.41,-6.545 15.837,-7.091 11.812,-0.767 22.503,2.138 33.9,9.208 l 4.145,2.572 6.137,-8.961 6.138,-8.961 -3.783,-2.386 C 286.373,40.535 277.082,37.861 260,37.375 249.324,37.072 245.14,37.36 240,38.752 m 286,-0.181 c -16.871,4.415 -31.822,16.212 -39.291,31 -5.997,11.873 -7.878,30.7 -4.29,42.929 4.876,16.618 15.999,30.209 30.581,37.365 9.005,4.419 20.233,7.135 29.5,7.135 15.645,0 32.727,-6.604 43.747,-16.912 12.201,-11.413 17.618,-23.064 18.498,-39.783 0.996,-18.93 -3.629,-31.913 -16.015,-44.953 -5.898,-6.209 -8.682,-8.246 -16.177,-11.841 -4.979,-2.389 -11.438,-4.83 -14.352,-5.427 -7.392,-1.512 -25.615,-1.237 -32.201,0.487 m 162.5,-0.218 c -12.351,3.155 -25.059,11.055 -32.868,20.433 -7.887,9.472 -13.597,25.521 -13.597,38.214 0,22.198 13.361,43.524 33.248,53.066 25.069,12.03 53.173,7.811 75.083,-11.271 l 3.866,-3.367 -8.296,-7.065 -8.296,-7.064 -6.027,4.856 c -8.864,7.142 -14.926,9.218 -27.134,9.288 -9.365,0.053 -10.458,-0.158 -16.695,-3.228 -8.775,-4.32 -15.158,-10.654 -18.989,-18.839 -9.241,-19.748 -0.746,-43.078 18.987,-52.143 14.421,-6.624 35.817,-2.805 46.2,8.248 1.302,1.385 2.754,2.519 3.227,2.519 0.473,0 4.472,-2.988 8.886,-6.64 l 8.026,-6.64 -3.31,-3.435 c -5.133,-5.326 -16.224,-12.273 -24.135,-15.115 -6.092,-2.19 -9.139,-2.618 -20.176,-2.837 -8.12,-0.161 -14.877,0.222 -18,1.02 M 829,38.571 c -20.54,5.375 -36.983,20.653 -42.975,39.929 -2.836,9.124 -3.116,25.072 -0.606,34.5 4.976,18.689 20.11,34.439 39.081,40.674 6.695,2.2 9.876,2.638 19.5,2.684 13.315,0.064 20.783,-1.561 31.705,-6.9 6.735,-3.293 18.727,-12.863 18.083,-14.432 -0.158,-0.386 -3.729,-3.691 -7.935,-7.343 l -7.647,-6.641 -3.853,3.54 c -2.119,1.947 -7.195,5.196 -11.279,7.218 -7.063,3.498 -7.917,3.678 -17.5,3.689 -9.267,0.01 -10.614,-0.245 -16.815,-3.182 -8.327,-3.945 -15.444,-10.887 -19.302,-18.829 -2.633,-5.421 -2.906,-6.957 -2.93,-16.478 -0.024,-9.486 0.251,-11.101 2.847,-16.722 3.522,-7.624 11.325,-15.311 19.373,-19.082 5.156,-2.416 6.895,-2.696 16.753,-2.696 12.787,10e-4 18.132,1.82 27.313,9.298 6.044,4.923 4.794,5.197 15.041,-3.298 3.318,-2.75 6.058,-5.321 6.089,-5.713 0.031,-0.392 -2.305,-2.984 -5.193,-5.76 C 882.446,46.967 870.642,40.599 861.886,38.535 853.84,36.638 836.312,36.658 829,38.571 M 346,96.5 V 154 h 11 11 v -20 -20 l 13.75,0.033 13.75,0.032 13,19.962 13,19.961 12.75,0.006 c 7.012,0.003 12.75,-0.216 12.75,-0.487 0,-0.272 -6.075,-9.749 -13.5,-21.062 -7.425,-11.312 -13.492,-20.878 -13.483,-21.257 0.009,-0.378 2.49,-1.759 5.512,-3.067 7.071,-3.061 12.98,-8.842 16.32,-15.966 2.349,-5.01 2.648,-6.852 2.624,-16.155 -0.023,-9.383 -0.318,-11.1 -2.772,-16.143 -3.189,-6.555 -9.952,-13.196 -16.299,-16.003 -9.315,-4.121 -16.33,-4.818 -48.652,-4.837 L 346,39 V 96.5 M 527.892,60.299 c -9.728,4.098 -16.047,9.784 -20.271,18.243 -4.984,9.982 -5.821,19.361 -2.646,29.641 4.954,16.038 18.064,26.392 34.879,27.544 17.037,1.168 31.902,-7.447 39.011,-22.607 2.346,-5.005 2.635,-6.825 2.635,-16.62 0,-9.85 -0.281,-11.6 -2.688,-16.736 -3.432,-7.323 -10.692,-14.579 -18.325,-18.316 -5.274,-2.582 -7.238,-2.965 -16.487,-3.22 -9.184,-0.254 -11.203,0.006 -16.108,2.071 M 368,76.5 V 93 l 20.25,-0.022 c 17.583,-0.019 20.79,-0.267 24.349,-1.883 5.717,-2.597 8.709,-7.165 9.189,-14.03 C 422.274,70.11 419.586,65.562 413.03,62.25 408.847,60.137 407.341,60 388.288,60 H 368 v 16.5"
       id="path4" />
    <g
       aria-label="Cyber Service Resilience Operations Command Center"
       id="text6"
       style="font-size:30px;font-family:Inter, Arial, sans-serif;letter-spacing:0.5;text-anchor:middle">
      <path
         d="m 87.84375,212.29297 q -2.797852,0 -4.995117,-1.34766 -2.182617,-1.3623 -3.442383,-3.86719 -1.245117,-2.51953 -1.245117,-5.97656 0,-3.47168 1.245117,-5.97656 1.259766,-2.51953 3.442383,-3.88184 2.197265,-1.3623 4.995117,-1.3623 1.655273,0 3.120117,0.4834 1.479492,0.4834 2.651367,1.4209 1.171875,0.92285 1.948243,2.25586 0.791015,1.31835 1.083984,3.00293 h -2.783203 q -0.234375,-1.12793 -0.805664,-1.97754 -0.556641,-0.84961 -1.376953,-1.43555 -0.805664,-0.58594 -1.78711,-0.87891 -0.981445,-0.29297 -2.050781,-0.29297 -1.962891,0 -3.544922,0.9961 -1.582031,0.99609 -2.504883,2.92969 -0.922851,1.91894 -0.922851,4.71679 0,2.78321 0.922851,4.7168 0.9375,1.91894 2.519532,2.91504 1.582031,0.98144 3.530273,0.98144 1.069336,0 2.050781,-0.29297 0.981446,-0.30761 1.78711,-0.8789 0.820312,-0.58594 1.376953,-1.43555 0.571289,-0.86426 0.805664,-1.97754 h 2.783203 q -0.27832,1.66992 -1.069336,2.98828 -0.776367,1.31836 -1.948242,2.25586 -1.171875,0.9375 -2.651367,1.43555 -1.464844,0.4834 -3.134766,0.4834 z"
         id="path18" />
      <path
         d="m 100.83887,217.93262 0.67383,-2.28516 0.27832,0.0732 q 0.80566,0.20508 1.46484,0.10254 0.65918,-0.0879 1.18652,-0.64453 0.52735,-0.55664 0.92285,-1.72851 l 0.46875,-1.36231 -6.254878,-16.46484 h 2.885738 l 3.48633,9.71191 q 0.55664,1.52344 0.9375,3.01758 0.16113,0.61523 0.32227,1.23047 0.16113,-0.61524 0.33691,-1.24512 0.38086,-1.49414 0.92285,-3.00293 l 3.51563,-9.71191 h 2.87109 l -7.19238,18.82324 q -0.49805,1.30371 -1.20117,2.13867 -0.68848,0.84961 -1.61133,1.24512 -0.92285,0.41015 -2.08008,0.41015 -0.70312,0 -1.21582,-0.10253 -0.51269,-0.10254 -0.71777,-0.20508 z"
         id="path20" />
      <path
         d="m 126.21191,212.35156 q -1.55273,0 -2.50488,-0.52734 -0.95215,-0.54199 -1.46484,-1.21582 -0.5127,-0.68848 -0.79102,-1.14258 H 121.1582 V 212 h -2.54882 v -21.82617 h 2.63671 v 8.07129 h 0.20508 q 0.27832,-0.43946 0.77637,-1.09864 0.49805,-0.67382 1.43555,-1.20117 0.9375,-0.52734 2.53418,-0.52734 2.05078,0 3.60351,1.02539 1.56738,1.02539 2.44629,2.92969 0.89355,1.88965 0.89355,4.48242 0,2.60742 -0.8789,4.51172 -0.87891,1.90429 -2.44629,2.94433 -1.55273,1.04004 -3.60352,1.04004 z m -0.3955,-2.3584 q 1.53808,0 2.56347,-0.82031 1.04004,-0.83496 1.55274,-2.22656 0.52734,-1.40625 0.52734,-3.12012 0,-1.69922 -0.51269,-3.06152 -0.5127,-1.37695 -1.55274,-2.18262 -1.02539,-0.80566 -2.57812,-0.80566 -1.50879,0 -2.53418,0.76172 -1.02539,0.76171 -1.55274,2.12402 -0.51269,1.34766 -0.51269,3.16406 0,1.81641 0.52734,3.20801 0.52734,1.3916 1.55274,2.18262 1.04003,0.77636 2.51953,0.77636 z"
         id="path22" />
      <path
         d="m 144.36328,212.35156 q -2.37305,0 -4.10156,-1.05469 -1.71387,-1.05468 -2.65137,-2.94433 -0.92285,-1.88965 -0.92285,-4.40918 0,-2.51953 0.9082,-4.43848 0.90821,-1.91894 2.56348,-3.00293 1.66992,-1.08398 3.89648,-1.08398 1.30371,0 2.56348,0.43945 1.27441,0.42481 2.29981,1.3916 1.04003,0.95215 1.65527,2.51953 0.61523,1.56739 0.61523,3.8379 v 1.09863 h -11.83593 q 0.0586,1.58203 0.62988,2.72461 0.62988,1.27441 1.75781,1.93359 1.14258,0.64453 2.63672,0.64453 0.9668,0 1.75781,-0.27832 0.79102,-0.27832 1.36231,-0.83496 0.57129,-0.57129 0.8789,-1.40625 l 2.54883,0.70313 q -0.38086,1.23046 -1.28906,2.16796 -0.9082,0.9375 -2.25586,1.46485 -1.33301,0.52734 -3.01758,0.52734 z m -4.99512,-9.87304 h 9.14063 q -0.10254,-1.11329 -0.46875,-2.05079 -0.5127,-1.24511 -1.50879,-1.94824 -0.99609,-0.71777 -2.47559,-0.71777 -1.47949,0 -2.53418,0.73242 -1.05468,0.71777 -1.61132,1.875 -0.46875,0.99609 -0.542,2.10938 z"
         id="path24" />
      <path
         d="m 155.46875,212 v -16.37695 h 2.54883 v 2.51953 h 0.17578 q 0.4541,-1.24512 1.61133,-1.99219 1.17187,-0.76172 2.63672,-0.76172 0.29296,0 0.68847,0.0147 0.41016,0.0146 0.64453,0.0293 v 2.65136 q -0.11718,-0.0293 -0.58593,-0.0879 -0.46875,-0.0586 -0.9961,-0.0586 -1.17187,0 -2.10937,0.49805 -0.92285,0.4834 -1.4502,1.34765 -0.52734,0.84961 -0.52734,1.96289 V 212 Z"
         id="path26" />
      <path
         d="m 183.50977,212.38086 q -2.3584,0 -4.10157,-0.76172 -1.72851,-0.76172 -2.70996,-2.12402 -0.98144,-1.37696 -1.11328,-3.20801 h 2.85645 q 0.11718,1.23047 0.83496,2.03613 0.71777,0.79102 1.83105,1.18653 1.12793,0.38085 2.40235,0.38085 1.47949,0 2.65136,-0.48339 1.18653,-0.4834 1.875,-1.36231 0.68848,-0.8789 0.68848,-2.03613 0,-1.05469 -0.60059,-1.71387 -0.58593,-0.65918 -1.56738,-1.08398 -0.98144,-0.42481 -2.15332,-0.74707 l -2.63672,-0.74707 q -2.63672,-0.74707 -4.10156,-2.13868 -1.46484,-1.3916 -1.46484,-3.55957 0,-1.8457 0.99609,-3.22265 0.99609,-1.3916 2.69531,-2.15332 1.69922,-0.76172 3.8086,-0.76172 2.15332,0 3.80859,0.76172 1.65527,0.76172 2.60742,2.08008 0.9668,1.30371 1.02539,2.95898 h -2.72461 q -0.19043,-1.59668 -1.52344,-2.46094 -1.333,-0.8789 -3.28125,-0.8789 -1.40625,0 -2.47558,0.46875 -1.05469,0.4541 -1.64063,1.25976 -0.58593,0.79102 -0.58593,1.81641 0,1.14258 0.70312,1.8457 0.71777,0.68848 1.68457,1.08399 0.98145,0.38086 1.77246,0.60058 l 2.18262,0.60059 q 0.87891,0.23437 1.93359,0.64453 1.06934,0.41016 2.03614,1.09863 0.96679,0.67383 1.58203,1.72852 0.62988,1.04004 0.62988,2.56347 0,1.78711 -0.9375,3.22266 -0.92285,1.43555 -2.69531,2.27051 -1.77246,0.83496 -4.29199,0.83496 z"
         id="path28" />
      <path
         d="m 202.83301,212.35156 q -2.37305,0 -4.10156,-1.05469 -1.71387,-1.05468 -2.65137,-2.94433 -0.92285,-1.88965 -0.92285,-4.40918 0,-2.51953 0.9082,-4.43848 0.9082,-1.91894 2.56348,-3.00293 1.66992,-1.08398 3.89648,-1.08398 1.30371,0 2.56348,0.43945 1.27441,0.42481 2.2998,1.3916 1.04004,0.95215 1.65528,2.51953 0.61523,1.56739 0.61523,3.8379 v 1.09863 h -11.83594 q 0.0586,1.58203 0.62988,2.72461 0.62989,1.27441 1.75782,1.93359 1.14258,0.64453 2.63672,0.64453 0.96679,0 1.75781,-0.27832 0.79101,-0.27832 1.3623,-0.83496 0.57129,-0.57129 0.87891,-1.40625 l 2.54883,0.70313 q -0.38086,1.23046 -1.28906,2.16796 -0.90821,0.9375 -2.25586,1.46485 -1.33301,0.52734 -3.01758,0.52734 z m -4.99512,-9.87304 h 9.14063 q -0.10254,-1.11329 -0.46875,-2.05079 -0.5127,-1.24511 -1.50879,-1.94824 -0.9961,-0.71777 -2.47559,-0.71777 -1.47949,0 -2.53418,0.73242 -1.05469,0.71777 -1.61133,1.875 -0.46875,0.99609 -0.54199,2.10938 z"
         id="path30" />
      <path
         d="m 213.93848,212 v -16.37695 h 2.54882 v 2.51953 h 0.17579 q 0.4541,-1.24512 1.61132,-1.99219 1.17188,-0.76172 2.63672,-0.76172 0.29297,0 0.68848,0.0147 0.41016,0.0146 0.64453,0.0293 v 2.65136 q -0.11719,-0.0293 -0.58594,-0.0879 -0.46875,-0.0586 -0.99609,-0.0586 -1.17188,0 -2.10938,0.49805 -0.92285,0.4834 -1.45019,1.34765 -0.52734,0.84961 -0.52734,1.96289 V 212 Z"
         id="path32" />
      <path
         d="m 230.93262,212 -6.25489,-16.37695 h 2.88575 l 3.48632,9.71191 q 0.55665,1.50879 0.95215,3.00293 0.16114,0.62988 0.32227,1.24512 0.16113,-0.61524 0.33691,-1.24512 0.38086,-1.49414 0.92285,-3.00293 l 3.48633,-9.71191 h 2.88574 L 233.70117,212 Z"
         id="path34" />
      <path
         d="m 243.56152,212 v -16.37695 h 2.63672 V 212 Z m 1.33301,-19.05762 q -0.74707,0 -1.28906,-0.51269 -0.54199,-0.5127 -0.54199,-1.23047 0,-0.73242 0.54199,-1.23047 0.54199,-0.5127 1.28906,-0.5127 0.76172,0 1.30371,0.5127 0.54199,0.49805 0.54199,1.23047 0,0.71777 -0.54199,1.23047 -0.54199,0.51269 -1.30371,0.51269 z"
         id="path36" />
      <path
         d="m 257.99219,212.35156 q -2.22657,0 -3.91114,-1.05469 -1.66992,-1.05468 -2.60742,-2.95898 -0.9375,-1.9043 -0.9375,-4.42383 0,-2.56347 0.9375,-4.46777 0.9375,-1.91895 2.60742,-2.97363 1.68457,-1.05469 3.91114,-1.05469 1.18652,0 2.24121,0.30762 1.05469,0.30761 1.91894,0.89355 0.87891,0.57129 1.50879,1.4209 0.62989,0.83496 0.9668,1.9043 l -2.53418,0.71777 q -0.17578,-0.62988 -0.54199,-1.15723 -0.36621,-0.52734 -0.89356,-0.9082 -0.51269,-0.39551 -1.18652,-0.60059 -0.67383,-0.21972 -1.47949,-0.21972 -1.64063,0 -2.69532,0.86425 -1.05468,0.84961 -1.56738,2.24122 -0.51269,1.3916 -0.51269,3.03222 0,1.61133 0.51269,3.00293 0.5127,1.37696 1.56738,2.22656 1.05469,0.84961 2.69532,0.84961 0.82031,0 1.50879,-0.21972 0.68847,-0.21973 1.21582,-0.61524 0.54199,-0.41015 0.9082,-0.96679 0.36621,-0.55664 0.54199,-1.21582 l 2.51953,0.71777 q -0.32226,1.09863 -0.96679,1.96289 -0.62989,0.84961 -1.50879,1.46484 -0.87891,0.60059 -1.94824,0.90821 -1.06934,0.32226 -2.27051,0.32226 z"
         id="path38" />
      <path
         d="m 275.85059,212.35156 q -2.37305,0 -4.10157,-1.05469 -1.71386,-1.05468 -2.65136,-2.94433 -0.92286,-1.88965 -0.92286,-4.40918 0,-2.51953 0.90821,-4.43848 0.9082,-1.91894 2.56347,-3.00293 1.66993,-1.08398 3.89649,-1.08398 1.30371,0 2.56348,0.43945 1.27441,0.42481 2.2998,1.3916 1.04004,0.95215 1.65527,2.51953 0.61524,1.56739 0.61524,3.8379 v 1.09863 h -11.83594 q 0.0586,1.58203 0.62988,2.72461 0.62989,1.27441 1.75782,1.93359 1.14257,0.64453 2.63671,0.64453 0.9668,0 1.75782,-0.27832 0.79101,-0.27832 1.3623,-0.83496 0.57129,-0.57129 0.87891,-1.40625 l 2.54883,0.70313 q -0.38086,1.23046 -1.28907,2.16796 -0.9082,0.9375 -2.25586,1.46485 -1.333,0.52734 -3.01757,0.52734 z m -4.99512,-9.87304 h 9.14062 q -0.10254,-1.11329 -0.46875,-2.05079 -0.51269,-1.24511 -1.50879,-1.94824 -0.99609,-0.71777 -2.47558,-0.71777 -1.47949,0 -2.53418,0.73242 -1.05469,0.71777 -1.61133,1.875 -0.46875,0.99609 -0.54199,2.10938 z"
         id="path40" />
      <path
         d="m 296.21582,212 v -21.82617 h 7.4707 q 2.54883,0 4.18946,0.8789 1.65527,0.86426 2.44629,2.3877 0.80566,1.52344 0.80566,3.47168 0,1.94824 -0.80566,3.44238 -0.79102,1.49414 -2.43165,2.3291 -0.38085,0.20508 -0.80566,0.35157 L 311.97754,212 h -3.22266 l -4.54101,-8.48145 q -0.24903,0.0146 -0.5127,0.0146 h -4.70215 V 212 Z m 2.7832,-10.94238 h 4.57032 q 1.72851,0 2.76855,-0.49805 1.05469,-0.5127 1.53809,-1.43555 0.48339,-0.9375 0.48339,-2.21191 0,-1.30371 -0.48339,-2.25586 -0.4834,-0.9668 -1.53809,-1.49414 -1.05469,-0.54199 -2.79785,-0.54199 h -4.54102 z"
         id="path42" />
      <path
         d="m 322.14551,212.35156 q -2.37305,0 -4.10156,-1.05469 -1.71387,-1.05468 -2.65137,-2.94433 -0.92285,-1.88965 -0.92285,-4.40918 0,-2.51953 0.9082,-4.43848 0.9082,-1.91894 2.56348,-3.00293 1.66992,-1.08398 3.89648,-1.08398 1.30371,0 2.56348,0.43945 1.27441,0.42481 2.2998,1.3916 1.04004,0.95215 1.65528,2.51953 0.61523,1.56739 0.61523,3.8379 v 1.09863 h -11.83594 q 0.0586,1.58203 0.62988,2.72461 0.62989,1.27441 1.75782,1.93359 1.14258,0.64453 2.63672,0.64453 0.96679,0 1.75781,-0.27832 0.79101,-0.27832 1.3623,-0.83496 0.57129,-0.57129 0.87891,-1.40625 l 2.54883,0.70313 q -0.38086,1.23046 -1.28906,2.16796 -0.90821,0.9375 -2.25586,1.46485 -1.33301,0.52734 -3.01758,0.52734 z m -4.99512,-9.87304 h 9.14063 q -0.10254,-1.11329 -0.46875,-2.05079 -0.5127,-1.24511 -1.50879,-1.94824 -0.9961,-0.71777 -2.47559,-0.71777 -1.47949,0 -2.53418,0.73242 -1.05469,0.71777 -1.61133,1.875 -0.46875,0.99609 -0.54199,2.10938 z"
         id="path44" />
      <path
         d="m 338.81738,212.35156 q -1.68457,0 -3.00293,-0.4834 -1.30371,-0.49804 -2.15332,-1.46484 -0.84961,-0.9668 -1.14258,-2.37305 l 2.50489,-0.60058 q 0.35156,1.34765 1.31836,1.97754 0.98144,0.62988 2.44629,0.62988 1.71386,0 2.72461,-0.73242 1.02539,-0.73242 1.02539,-1.74317 0,-0.84961 -0.60059,-1.40625 -0.58594,-0.57129 -1.80176,-0.84961 l -2.72461,-0.64453 q -2.22656,-0.52734 -3.31054,-1.62597 -1.08399,-1.11329 -1.08399,-2.8418 0,-1.40625 0.79102,-2.47559 0.79101,-1.08398 2.15332,-1.68457 1.37695,-0.61523 3.12011,-0.61523 1.68457,0 2.85645,0.51269 1.18652,0.49805 1.91895,1.39161 0.74707,0.8789 1.11328,2.03613 l -2.3877,0.61523 q -0.33691,-0.8789 -1.12793,-1.59668 -0.77637,-0.71777 -2.3584,-0.71777 -1.46484,0 -2.44629,0.67383 -0.96679,0.67383 -0.96679,1.69922 0,0.9082 0.65918,1.46484 0.65918,0.54199 2.09472,0.87891 l 2.47559,0.58593 q 2.22656,0.52735 3.2959,1.64063 1.06933,1.09863 1.06933,2.7832 0,1.43555 -0.82031,2.56348 -0.80566,1.11328 -2.27051,1.75781 -1.45019,0.64453 -3.36914,0.64453 z"
         id="path46" />
      <path
         d="m 349.58594,212 v -16.37695 h 2.63672 V 212 Z m 1.33301,-19.05762 q -0.74708,0 -1.28907,-0.51269 -0.54199,-0.5127 -0.54199,-1.23047 0,-0.73242 0.54199,-1.23047 0.54199,-0.5127 1.28907,-0.5127 0.76171,0 1.30371,0.5127 0.54199,0.49805 0.54199,1.23047 0,0.71777 -0.54199,1.23047 -0.542,0.51269 -1.30371,0.51269 z"
         id="path48" />
      <path
         d="M 359.98828,190.17383 V 212 h -2.63672 v -21.82617 z"
         id="path50" />
      <path
         d="m 365.11719,212 v -16.37695 h 2.63672 V 212 Z m 1.33301,-19.05762 q -0.74708,0 -1.28907,-0.51269 -0.54199,-0.5127 -0.54199,-1.23047 0,-0.73242 0.54199,-1.23047 0.54199,-0.5127 1.28907,-0.5127 0.76171,0 1.30371,0.5127 0.54199,0.49805 0.54199,1.23047 0,0.71777 -0.54199,1.23047 -0.542,0.51269 -1.30371,0.51269 z"
         id="path52" />
      <path
         d="m 379.76758,212.35156 q -2.37305,0 -4.10156,-1.05469 -1.71387,-1.05468 -2.65137,-2.94433 -0.92285,-1.88965 -0.92285,-4.40918 0,-2.51953 0.9082,-4.43848 0.9082,-1.91894 2.56348,-3.00293 1.66992,-1.08398 3.89648,-1.08398 1.30371,0 2.56348,0.43945 1.27441,0.42481 2.2998,1.3916 1.04004,0.95215 1.65528,2.51953 0.61523,1.56739 0.61523,3.8379 v 1.09863 h -11.83594 q 0.0586,1.58203 0.62989,2.72461 0.62988,1.27441 1.75781,1.93359 1.14258,0.64453 2.63672,0.64453 0.96679,0 1.75781,-0.27832 0.79101,-0.27832 1.3623,-0.83496 0.57129,-0.57129 0.87891,-1.40625 l 2.54883,0.70313 q -0.38086,1.23046 -1.28906,2.16796 -0.90821,0.9375 -2.25586,1.46485 -1.33301,0.52734 -3.01758,0.52734 z m -4.99512,-9.87304 h 9.14063 q -0.10254,-1.11329 -0.46875,-2.05079 -0.5127,-1.24511 -1.50879,-1.94824 -0.9961,-0.71777 -2.47559,-0.71777 -1.47949,0 -2.53418,0.73242 -1.05469,0.71777 -1.61133,1.875 -0.46875,0.99609 -0.54199,2.10938 z"
         id="path54" />
      <path
         d="M 393.50977,202.18555 V 212 h -2.63672 v -16.37695 h 2.53418 l 0.0146,3.03222 q 0.68848,-1.53808 1.77247,-2.28515 1.37695,-0.95215 3.2373,-0.95215 1.65527,0 2.90039,0.68848 1.24512,0.67382 1.93359,2.05078 0.70313,1.3623 0.70313,3.44238 V 212 h -2.63672 v -10.18066 q 0,-1.88965 -0.99609,-2.95899 -0.98145,-1.06933 -2.69532,-1.06933 -1.17187,0 -2.10937,0.51269 -0.9375,0.5127 -1.47949,1.49414 -0.54199,0.98145 -0.54199,2.3877 z"
         id="path56" />
      <path
         d="m 415.7627,212.35156 q -2.22657,0 -3.91114,-1.05469 -1.66992,-1.05468 -2.60742,-2.95898 -0.9375,-1.9043 -0.9375,-4.42383 0,-2.56347 0.9375,-4.46777 0.9375,-1.91895 2.60742,-2.97363 1.68457,-1.05469 3.91114,-1.05469 1.18652,0 2.24121,0.30762 1.05468,0.30761 1.91894,0.89355 0.87891,0.57129 1.50879,1.4209 0.62988,0.83496 0.9668,1.9043 l -2.53418,0.71777 q -0.17578,-0.62988 -0.54199,-1.15723 -0.36622,-0.52734 -0.89356,-0.9082 -0.51269,-0.39551 -1.18652,-0.60059 -0.67383,-0.21972 -1.47949,-0.21972 -1.64063,0 -2.69532,0.86425 -1.05468,0.84961 -1.56738,2.24122 -0.5127,1.3916 -0.5127,3.03222 0,1.61133 0.5127,3.00293 0.5127,1.37696 1.56738,2.22656 1.05469,0.84961 2.69532,0.84961 0.82031,0 1.50878,-0.21972 0.68848,-0.21973 1.21582,-0.61524 0.542,-0.41015 0.90821,-0.96679 0.36621,-0.55664 0.54199,-1.21582 l 2.51953,0.71777 q -0.32226,1.09863 -0.9668,1.96289 -0.62988,0.84961 -1.50878,1.46484 -0.87891,0.60059 -1.94825,0.90821 -1.06933,0.32226 -2.2705,0.32226 z"
         id="path58" />
      <path
         d="m 433.62109,212.35156 q -2.37304,0 -4.10156,-1.05469 -1.71387,-1.05468 -2.65137,-2.94433 -0.92285,-1.88965 -0.92285,-4.40918 0,-2.51953 0.90821,-4.43848 0.9082,-1.91894 2.56347,-3.00293 1.66992,-1.08398 3.89649,-1.08398 1.30371,0 2.56347,0.43945 1.27442,0.42481 2.29981,1.3916 1.04004,0.95215 1.65527,2.51953 0.61524,1.56739 0.61524,3.8379 v 1.09863 h -11.83594 q 0.0586,1.58203 0.62988,2.72461 0.62988,1.27441 1.75781,1.93359 1.14258,0.64453 2.63672,0.64453 0.9668,0 1.75781,-0.27832 0.79102,-0.27832 1.36231,-0.83496 0.57129,-0.57129 0.87891,-1.40625 l 2.54882,0.70313 q -0.38086,1.23046 -1.28906,2.16796 -0.9082,0.9375 -2.25586,1.46485 -1.33301,0.52734 -3.01758,0.52734 z m -4.99511,-9.87304 h 9.14062 q -0.10254,-1.11329 -0.46875,-2.05079 -0.51269,-1.24511 -1.50879,-1.94824 -0.99609,-0.71777 -2.47558,-0.71777 -1.4795,0 -2.53418,0.73242 -1.05469,0.71777 -1.61133,1.875 -0.46875,0.99609 -0.54199,2.10938 z"
         id="path60" />
      <path
         d="m 462.83398,212.29297 q -2.79785,0 -4.99511,-1.34766 -2.18262,-1.3623 -3.44239,-3.86719 -1.25976,-2.51953 -1.25976,-5.97656 0,-3.47168 1.25976,-5.97656 1.25977,-2.51953 3.44239,-3.88184 2.19726,-1.3623 4.99511,-1.3623 2.79786,0 4.98047,1.3623 2.18262,1.36231 3.42774,3.88184 1.25976,2.50488 1.25976,5.97656 0,3.45703 -1.25976,5.97656 -1.24512,2.50489 -3.42774,3.86719 -2.18261,1.34766 -4.98047,1.34766 z m 0,-2.57813 q 1.94825,0 3.51563,-0.98144 1.58203,-0.9961 2.50488,-2.91504 0.9375,-1.93359 0.9375,-4.7168 0,-2.8125 -0.9375,-4.73144 -0.92285,-1.9336 -2.50488,-2.91504 -1.56738,-0.9961 -3.51563,-0.9961 -1.96289,0 -3.54492,0.9961 -1.58203,0.99609 -2.51953,2.92969 -0.92285,1.91894 -0.92285,4.71679 0,2.78321 0.92285,4.70215 0.9375,1.91895 2.51953,2.91504 1.58203,0.99609 3.54492,0.99609 z"
         id="path62" />
      <path
         d="m 477.10352,218.12305 v -22.5 h 2.54882 v 2.62207 h 0.29297 q 0.27832,-0.43946 0.77637,-1.09864 0.49805,-0.67382 1.43555,-1.20117 0.9375,-0.52734 2.53418,-0.52734 2.05078,0 3.60351,1.02539 1.56738,1.02539 2.44629,2.92969 0.89356,1.88965 0.89356,4.48242 0,2.60742 -0.87891,4.51172 -0.87891,1.90429 -2.44629,2.94433 -1.55273,1.04004 -3.60352,1.04004 -1.55273,0 -2.50488,-0.52734 -0.95215,-0.54199 -1.46484,-1.21582 -0.5127,-0.68848 -0.79102,-1.14258 h -0.20508 v 8.65723 z m 7.20703,-8.12989 q 1.53808,0 2.56347,-0.82031 1.04004,-0.83496 1.55274,-2.22656 0.52734,-1.40625 0.52734,-3.12012 0,-1.69922 -0.51269,-3.06152 -0.5127,-1.37695 -1.55274,-2.18262 -1.02539,-0.80566 -2.57812,-0.80566 -1.50879,0 -2.53418,0.76172 -1.02539,0.76171 -1.55274,2.12402 -0.51269,1.34766 -0.51269,3.16406 0,1.81641 0.52734,3.20801 0.52734,1.3916 1.55274,2.18262 1.04003,0.77636 2.51953,0.77636 z"
         id="path64" />
      <path
         d="m 502.85742,212.35156 q -2.37305,0 -4.10156,-1.05469 -1.71387,-1.05468 -2.65137,-2.94433 -0.92285,-1.88965 -0.92285,-4.40918 0,-2.51953 0.9082,-4.43848 0.90821,-1.91894 2.56348,-3.00293 1.66992,-1.08398 3.89648,-1.08398 1.30372,0 2.56348,0.43945 1.27442,0.42481 2.29981,1.3916 1.04003,0.95215 1.65527,2.51953 0.61523,1.56739 0.61523,3.8379 v 1.09863 h -11.83593 q 0.0586,1.58203 0.62988,2.72461 0.62988,1.27441 1.75781,1.93359 1.14258,0.64453 2.63672,0.64453 0.9668,0 1.75781,-0.27832 0.79102,-0.27832 1.36231,-0.83496 0.57129,-0.57129 0.8789,-1.40625 l 2.54883,0.70313 q -0.38086,1.23046 -1.28906,2.16796 -0.9082,0.9375 -2.25586,1.46485 -1.33301,0.52734 -3.01758,0.52734 z m -4.99512,-9.87304 h 9.14063 q -0.10254,-1.11329 -0.46875,-2.05079 -0.5127,-1.24511 -1.50879,-1.94824 -0.99609,-0.71777 -2.47559,-0.71777 -1.47949,0 -2.53418,0.73242 -1.05468,0.71777 -1.61132,1.875 -0.46875,0.99609 -0.542,2.10938 z"
         id="path66" />
      <path
         d="m 513.96289,212 v -16.37695 h 2.54883 v 2.51953 h 0.17578 q 0.4541,-1.24512 1.61133,-1.99219 1.17187,-0.76172 2.63672,-0.76172 0.29297,0 0.68847,0.0147 0.41016,0.0146 0.64453,0.0293 v 2.65136 q -0.11718,-0.0293 -0.58593,-0.0879 -0.46875,-0.0586 -0.9961,-0.0586 -1.17187,0 -2.10937,0.49805 -0.92285,0.4834 -1.4502,1.34765 -0.52734,0.84961 -0.52734,1.96289 V 212 Z"
         id="path68" />
      <path
         d="m 530.3418,212.38086 q -1.55274,0 -2.82715,-0.58594 -1.25977,-0.58594 -2.00684,-1.71387 -0.74707,-1.12793 -0.74707,-2.73925 0,-1.40625 0.55664,-2.28516 0.55664,-0.87891 1.47949,-1.37695 0.9375,-0.5127 2.06543,-0.76172 1.12793,-0.24902 2.27051,-0.39551 1.46485,-0.19043 2.3877,-0.29297 0.92285,-0.10254 1.3623,-0.35156 0.4541,-0.24902 0.4541,-0.84961 v -0.0879 q 0,-1.02539 -0.38086,-1.72852 -0.38085,-0.71777 -1.14257,-1.09863 -0.76172,-0.38086 -1.9043,-0.38086 -1.17188,0 -2.00684,0.36621 -0.83496,0.36621 -1.3623,0.92285 -0.5127,0.542 -0.77637,1.11329 l -2.53418,-0.83497 q 0.62988,-1.49414 1.69922,-2.3291 1.06934,-0.84961 2.3584,-1.20117 1.28906,-0.35156 2.54883,-0.35156 0.82031,0 1.86035,0.20508 1.05469,0.19043 2.02148,0.77636 0.98145,0.58594 1.61133,1.74317 0.64453,1.14258 0.64453,3.06152 V 212 h -2.59277 v -2.22656 h -0.17578 q -0.27832,0.57129 -0.89356,1.18652 -0.61523,0.60059 -1.59668,1.01074 -0.98144,0.41016 -2.37304,0.41016 z m 0.4541,-2.3291 q 1.46484,0 2.47558,-0.57129 1.01075,-0.57129 1.53809,-1.47949 0.52734,-0.92286 0.52734,-1.91895 v -2.27051 q -0.16113,0.19043 -0.70312,0.35157 -0.54199,0.14648 -1.24512,0.26367 -0.68847,0.11719 -1.34765,0.20508 -0.64454,0.0732 -1.0254,0.11718 -0.95214,0.11719 -1.7871,0.41016 -0.82032,0.27832 -1.31836,0.83496 -0.49805,0.54199 -0.49805,1.47949 0,0.84961 0.43945,1.4209 0.43946,0.57129 1.20117,0.86426 0.76172,0.29297 1.74317,0.29297 z"
         id="path70" />
      <path
         d="m 549.54785,195.62305 v 2.25586 h -3.36914 v 9.87304 q 0,1.09864 0.43945,1.61133 0.45411,0.49805 1.49414,0.49805 0.24903,0 0.62989,-0.0586 0.39551,-0.0586 0.71777,-0.11718 l 0.54199,2.22656 q -0.41015,0.14648 -0.9375,0.21973 -0.51269,0.0732 -1.02539,0.0732 -2.12402,0 -3.31054,-1.11328 -1.18653,-1.12793 -1.18653,-3.13477 v -10.07812 h -2.46094 v -2.25586 h 2.46094 v -3.89649 h 2.63672 v 3.89649 z"
         id="path72" />
      <path
         d="m 553.41699,212 v -16.37695 h 2.63672 V 212 Z M 554.75,192.94238 q -0.74707,0 -1.28906,-0.51269 -0.54199,-0.5127 -0.54199,-1.23047 0,-0.73242 0.54199,-1.23047 0.54199,-0.5127 1.28906,-0.5127 0.76172,0 1.30371,0.5127 0.54199,0.49805 0.54199,1.23047 0,0.71777 -0.54199,1.23047 -0.54199,0.51269 -1.30371,0.51269 z"
         id="path74" />
      <path
         d="m 567.84766,212.35156 q -2.22657,0 -3.91114,-1.05469 -1.66992,-1.05468 -2.60742,-2.95898 -0.9375,-1.9043 -0.9375,-4.42383 0,-2.56347 0.9375,-4.46777 0.9375,-1.91895 2.60742,-2.97363 1.68457,-1.05469 3.91114,-1.05469 2.24121,0 3.92578,1.05469 1.68457,1.05468 2.62207,2.97363 0.9375,1.9043 0.9375,4.46777 0,2.51953 -0.9375,4.42383 -0.9375,1.9043 -2.62207,2.95898 -1.68457,1.05469 -3.92578,1.05469 z m 0,-2.3584 q 1.65527,0 2.72461,-0.84961 1.06933,-0.8496 1.58203,-2.22656 0.51269,-1.3916 0.51269,-3.00293 0,-1.62597 -0.51269,-3.01758 -0.5127,-1.40625 -1.58203,-2.25586 -1.06934,-0.86425 -2.72461,-0.86425 -1.64063,0 -2.69532,0.86425 -1.05468,0.84961 -1.56738,2.24122 -0.51269,1.3916 -0.51269,3.03222 0,1.61133 0.51269,3.00293 0.5127,1.37696 1.56738,2.22656 1.05469,0.84961 2.69532,0.84961 z"
         id="path76" />
      <path
         d="M 582.30762,202.18555 V 212 h -2.63672 v -16.37695 h 2.53418 l 0.0147,3.03222 q 0.68847,-1.53808 1.77246,-2.28515 1.37695,-0.95215 3.2373,-0.95215 1.65528,0 2.90039,0.68848 1.24512,0.67382 1.9336,2.05078 0.70312,1.3623 0.70312,3.44238 V 212 h -2.63672 v -10.18066 q 0,-1.88965 -0.99609,-2.95899 -0.98145,-1.06933 -2.69531,-1.06933 -1.17188,0 -2.10938,0.51269 -0.9375,0.5127 -1.47949,1.49414 -0.54199,0.98145 -0.54199,2.3877 z"
         id="path78" />
      <path
         d="m 603.46191,212.35156 q -1.68457,0 -3.00293,-0.4834 -1.30371,-0.49804 -2.15332,-1.46484 -0.84961,-0.9668 -1.14257,-2.37305 l 2.50488,-0.60058 q 0.35156,1.34765 1.31836,1.97754 0.98144,0.62988 2.44629,0.62988 1.71386,0 2.72461,-0.73242 1.02539,-0.73242 1.02539,-1.74317 0,-0.84961 -0.60059,-1.40625 -0.58594,-0.57129 -1.80176,-0.84961 l -2.72461,-0.64453 q -2.22656,-0.52734 -3.31054,-1.62597 -1.08399,-1.11329 -1.08399,-2.8418 0,-1.40625 0.79102,-2.47559 0.79101,-1.08398 2.15332,-1.68457 1.37695,-0.61523 3.12012,-0.61523 1.68457,0 2.85644,0.51269 1.18652,0.49805 1.91895,1.39161 0.74707,0.8789 1.11328,2.03613 l -2.3877,0.61523 q -0.33691,-0.8789 -1.12793,-1.59668 -0.77636,-0.71777 -2.3584,-0.71777 -1.46484,0 -2.44628,0.67383 -0.9668,0.67383 -0.9668,1.69922 0,0.9082 0.65918,1.46484 0.65918,0.54199 2.09472,0.87891 l 2.47559,0.58593 q 2.22656,0.52735 3.2959,1.64063 1.06933,1.09863 1.06933,2.7832 0,1.43555 -0.82031,2.56348 -0.80566,1.11328 -2.27051,1.75781 -1.45019,0.64453 -3.36914,0.64453 z"
         id="path80" />
      <path
         d="m 632.32324,212.29297 q -2.79785,0 -4.99512,-1.34766 -2.18261,-1.3623 -3.44238,-3.86719 -1.24512,-2.51953 -1.24512,-5.97656 0,-3.47168 1.24512,-5.97656 1.25977,-2.51953 3.44238,-3.88184 2.19727,-1.3623 4.99512,-1.3623 1.65528,0 3.12012,0.4834 1.47949,0.4834 2.65137,1.4209 1.17187,0.92285 1.94824,2.25586 0.79101,1.31835 1.08398,3.00293 h -2.7832 q -0.23438,-1.12793 -0.80566,-1.97754 -0.55664,-0.84961 -1.37696,-1.43555 -0.80566,-0.58594 -1.78711,-0.87891 -0.98144,-0.29297 -2.05078,-0.29297 -1.96289,0 -3.54492,0.9961 -1.58203,0.99609 -2.50488,2.92969 -0.92285,1.91894 -0.92285,4.71679 0,2.78321 0.92285,4.7168 0.9375,1.91894 2.51953,2.91504 1.58203,0.98144 3.53027,0.98144 1.06934,0 2.05078,-0.29297 0.98145,-0.30761 1.78711,-0.8789 0.82032,-0.58594 1.37696,-1.43555 0.57128,-0.86426 0.80566,-1.97754 h 2.7832 q -0.27832,1.66992 -1.06933,2.98828 -0.77637,1.31836 -1.94825,2.25586 -1.17187,0.9375 -2.65136,1.43555 -1.46485,0.4834 -3.13477,0.4834 z"
         id="path82" />
      <path
         d="m 652.24707,212.35156 q -2.22656,0 -3.91113,-1.05469 -1.66992,-1.05468 -2.60742,-2.95898 -0.9375,-1.9043 -0.9375,-4.42383 0,-2.56347 0.9375,-4.46777 0.9375,-1.91895 2.60742,-2.97363 1.68457,-1.05469 3.91113,-1.05469 2.24121,0 3.92578,1.05469 1.68457,1.05468 2.62207,2.97363 0.9375,1.9043 0.9375,4.46777 0,2.51953 -0.9375,4.42383 -0.9375,1.9043 -2.62207,2.95898 -1.68457,1.05469 -3.92578,1.05469 z m 0,-2.3584 q 1.65527,0 2.72461,-0.84961 1.06934,-0.8496 1.58203,-2.22656 0.5127,-1.3916 0.5127,-3.00293 0,-1.62597 -0.5127,-3.01758 -0.51269,-1.40625 -1.58203,-2.25586 -1.06934,-0.86425 -2.72461,-0.86425 -1.64062,0 -2.69531,0.86425 -1.05469,0.84961 -1.56739,2.24122 -0.51269,1.3916 -0.51269,3.03222 0,1.61133 0.51269,3.00293 0.5127,1.37696 1.56739,2.22656 1.05469,0.84961 2.69531,0.84961 z"
         id="path84" />
      <path
         d="m 664.07031,212 v -16.37695 h 2.56348 l 0.0147,3.00293 q 0.32226,-0.90821 0.86426,-1.55274 0.71777,-0.86426 1.68457,-1.30371 0.98144,-0.43945 2.03613,-0.43945 1.78711,0 2.90039,1.09863 0.89355,0.89356 1.27441,2.22656 0.30762,-0.82031 0.86426,-1.46484 0.77637,-0.89356 1.875,-1.37695 1.11328,-0.4834 2.41699,-0.4834 1.4209,0 2.59278,0.61523 1.17187,0.61524 1.86035,1.86035 0.70312,1.24512 0.70312,3.14942 V 212 h -2.63672 v -10.97168 q 0,-1.77246 -0.99609,-2.53418 -0.99609,-0.76172 -2.31445,-0.76172 -1.09864,0 -1.9043,0.46875 -0.79102,0.4541 -1.23047,1.25977 -0.4248,0.80566 -0.4248,1.8457 V 212 h -2.63672 v -11.23535 q 0,-1.36231 -0.9082,-2.19727 -0.90821,-0.83496 -2.29981,-0.83496 -0.95215,0 -1.80176,0.4541 -0.83496,0.43946 -1.34765,1.31836 -0.5127,0.87891 -0.5127,2.18262 V 212 Z"
         id="path86" />
      <path
         d="m 690.84961,212 v -16.37695 h 2.56348 l 0.0146,3.00293 q 0.32227,-0.90821 0.86426,-1.55274 0.71778,-0.86426 1.68457,-1.30371 0.98145,-0.43945 2.03614,-0.43945 1.7871,0 2.90039,1.09863 0.89355,0.89356 1.27441,2.22656 0.30762,-0.82031 0.86426,-1.46484 0.77636,-0.89356 1.875,-1.37695 1.11328,-0.4834 2.41699,-0.4834 1.4209,0 2.59277,0.61523 1.17188,0.61524 1.86035,1.86035 0.70313,1.24512 0.70313,3.14942 V 212 h -2.63672 v -10.97168 q 0,-1.77246 -0.99609,-2.53418 -0.9961,-0.76172 -2.31446,-0.76172 -1.09863,0 -1.90429,0.46875 -0.79102,0.4541 -1.23047,1.25977 -0.42481,0.80566 -0.42481,1.8457 V 212 h -2.63671 v -11.23535 q 0,-1.36231 -0.90821,-2.19727 -0.9082,-0.83496 -2.2998,-0.83496 -0.95215,0 -1.80176,0.4541 -0.83496,0.43946 -1.34766,1.31836 -0.51269,0.87891 -0.51269,2.18262 V 212 Z"
         id="path88" />
      <path
         d="m 722.21387,212.38086 q -1.55274,0 -2.82715,-0.58594 -1.25977,-0.58594 -2.00684,-1.71387 -0.74707,-1.12793 -0.74707,-2.73925 0,-1.40625 0.55664,-2.28516 0.55664,-0.87891 1.4795,-1.37695 0.9375,-0.5127 2.06542,-0.76172 1.12793,-0.24902 2.27051,-0.39551 1.46485,-0.19043 2.3877,-0.29297 0.92285,-0.10254 1.3623,-0.35156 0.4541,-0.24902 0.4541,-0.84961 v -0.0879 q 0,-1.02539 -0.38086,-1.72852 -0.38085,-0.71777 -1.14257,-1.09863 -0.76172,-0.38086 -1.9043,-0.38086 -1.17188,0 -2.00684,0.36621 -0.83496,0.36621 -1.3623,0.92285 -0.5127,0.542 -0.77637,1.11329 l -2.53418,-0.83497 q 0.62989,-1.49414 1.69922,-2.3291 1.06934,-0.84961 2.3584,-1.20117 1.28906,-0.35156 2.54883,-0.35156 0.82031,0 1.86035,0.20508 1.05469,0.19043 2.02148,0.77636 0.98145,0.58594 1.61133,1.74317 0.64453,1.14258 0.64453,3.06152 V 212 h -2.59277 v -2.22656 h -0.17578 q -0.27832,0.57129 -0.89356,1.18652 -0.61523,0.60059 -1.59668,1.01074 -0.98144,0.41016 -2.37304,0.41016 z m 0.4541,-2.3291 q 1.46484,0 2.47558,-0.57129 1.01075,-0.57129 1.53809,-1.47949 0.52734,-0.92286 0.52734,-1.91895 v -2.27051 q -0.16113,0.19043 -0.70312,0.35157 -0.54199,0.14648 -1.24512,0.26367 -0.68847,0.11719 -1.34765,0.20508 -0.64454,0.0732 -1.02539,0.11718 -0.95215,0.11719 -1.78711,0.41016 -0.82032,0.27832 -1.31836,0.83496 -0.49805,0.54199 -0.49805,1.47949 0,0.84961 0.43945,1.4209 0.43946,0.57129 1.20117,0.86426 0.76172,0.29297 1.74317,0.29297 z"
         id="path90" />
      <path
         d="M 737.61133,202.18555 V 212 h -2.63672 v -16.37695 h 2.53418 l 0.0147,3.03222 q 0.68847,-1.53808 1.77246,-2.28515 1.37695,-0.95215 3.2373,-0.95215 1.65528,0 2.90039,0.68848 1.24512,0.67382 1.9336,2.05078 0.70312,1.3623 0.70312,3.44238 V 212 h -2.63672 v -10.18066 q 0,-1.88965 -0.99609,-2.95899 -0.98145,-1.06933 -2.69531,-1.06933 -1.17188,0 -2.10938,0.51269 -0.9375,0.5127 -1.47949,1.49414 -0.54199,0.98145 -0.54199,2.3877 z"
         id="path92" />
      <path
         d="m 759.33691,212.35156 q -2.03613,0 -3.60351,-1.04004 -1.56738,-1.04004 -2.44629,-2.94433 -0.87891,-1.9043 -0.87891,-4.51172 0,-2.59277 0.87891,-4.48242 0.89355,-1.9043 2.46094,-2.92969 1.56738,-1.02539 3.60351,-1.02539 1.59668,0 2.53418,0.52734 0.9375,0.52735 1.43555,1.20117 0.51269,0.65918 0.77637,1.09864 h 0.20507 v -8.07129 h 2.63672 V 212 h -2.54883 v -2.53418 h -0.29296 q -0.26368,0.4541 -0.79102,1.14258 -0.51269,0.67383 -1.46484,1.21582 -0.9375,0.52734 -2.50489,0.52734 z m 0.39551,-2.3584 q 1.49414,0 2.51953,-0.77636 1.02539,-0.79102 1.55274,-2.18262 0.52734,-1.3916 0.52734,-3.20801 0,-1.8164 -0.52734,-3.16406 -0.5127,-1.36231 -1.53809,-2.12402 -1.02539,-0.76172 -2.53418,-0.76172 -1.55273,0 -2.59277,0.80566 -1.02539,0.80567 -1.53809,2.18262 -0.51269,1.3623 -0.51269,3.06152 0,1.71387 0.51269,3.12012 0.52735,1.3916 1.56739,2.22656 1.04003,0.82031 2.56347,0.82031 z"
         id="path94" />
      <path
         d="m 790.16113,212.29297 q -2.79785,0 -4.99511,-1.34766 -2.18262,-1.3623 -3.44239,-3.86719 -1.24511,-2.51953 -1.24511,-5.97656 0,-3.47168 1.24511,-5.97656 1.25977,-2.51953 3.44239,-3.88184 2.19726,-1.3623 4.99511,-1.3623 1.65528,0 3.12012,0.4834 1.47949,0.4834 2.65137,1.4209 1.17187,0.92285 1.94824,2.25586 0.79101,1.31835 1.08398,3.00293 h -2.7832 q -0.23437,-1.12793 -0.80566,-1.97754 -0.55664,-0.84961 -1.37696,-1.43555 -0.80566,-0.58594 -1.78711,-0.87891 -0.98144,-0.29297 -2.05078,-0.29297 -1.96289,0 -3.54492,0.9961 -1.58203,0.99609 -2.50488,2.92969 -0.92285,1.91894 -0.92285,4.71679 0,2.78321 0.92285,4.7168 0.9375,1.91894 2.51953,2.91504 1.58203,0.98144 3.53027,0.98144 1.06934,0 2.05078,-0.29297 0.98145,-0.30761 1.78711,-0.8789 0.82032,-0.58594 1.37696,-1.43555 0.57129,-0.86426 0.80566,-1.97754 h 2.7832 q -0.27832,1.66992 -1.06933,2.98828 -0.77637,1.31836 -1.94824,2.25586 -1.17188,0.9375 -2.65137,1.43555 -1.46485,0.4834 -3.13477,0.4834 z"
         id="path96" />
      <path
         d="m 810.30469,212.35156 q -2.37305,0 -4.10157,-1.05469 -1.71386,-1.05468 -2.65136,-2.94433 -0.92285,-1.88965 -0.92285,-4.40918 0,-2.51953 0.9082,-4.43848 0.9082,-1.91894 2.56348,-3.00293 1.66992,-1.08398 3.89648,-1.08398 1.30371,0 2.56348,0.43945 1.27441,0.42481 2.2998,1.3916 1.04004,0.95215 1.65527,2.51953 0.61524,1.56739 0.61524,3.8379 v 1.09863 h -11.83594 q 0.0586,1.58203 0.62988,2.72461 0.62989,1.27441 1.75782,1.93359 1.14258,0.64453 2.63672,0.64453 0.96679,0 1.75781,-0.27832 0.79101,-0.27832 1.3623,-0.83496 0.57129,-0.57129 0.87891,-1.40625 l 2.54883,0.70313 q -0.38086,1.23046 -1.28907,2.16796 -0.9082,0.9375 -2.25585,1.46485 -1.33301,0.52734 -3.01758,0.52734 z m -4.99512,-9.87304 h 9.14063 q -0.10254,-1.11329 -0.46875,-2.05079 -0.5127,-1.24511 -1.50879,-1.94824 -0.9961,-0.71777 -2.47559,-0.71777 -1.47949,0 -2.53418,0.73242 -1.05469,0.71777 -1.61133,1.875 -0.46875,0.99609 -0.54199,2.10938 z"
         id="path98" />
      <path
         d="M 824.04687,202.18555 V 212 h -2.63671 v -16.37695 h 2.53418 l 0.0146,3.03222 q 0.68848,-1.53808 1.77247,-2.28515 1.37695,-0.95215 3.2373,-0.95215 1.65527,0 2.90039,0.68848 1.24512,0.67382 1.93359,2.05078 0.70313,1.3623 0.70313,3.44238 V 212 h -2.63672 v -10.18066 q 0,-1.88965 -0.99609,-2.95899 -0.98145,-1.06933 -2.69532,-1.06933 -1.17187,0 -2.10937,0.51269 -0.9375,0.5127 -1.47949,1.49414 -0.542,0.98145 -0.542,2.3877 z"
         id="path100" />
      <path
         d="m 846.08008,195.62305 v 2.25586 h -3.36914 v 9.87304 q 0,1.09864 0.43945,1.61133 0.4541,0.49805 1.49414,0.49805 0.24902,0 0.62988,-0.0586 0.39551,-0.0586 0.71778,-0.11718 l 0.54199,2.22656 q -0.41016,0.14648 -0.9375,0.21973 -0.5127,0.0732 -1.02539,0.0732 -2.12402,0 -3.31055,-1.11328 -1.18652,-1.12793 -1.18652,-3.13477 v -10.07812 h -2.46094 v -2.25586 h 2.46094 v -3.89649 h 2.63672 v 3.89649 z"
         id="path102" />
      <path
         d="m 856.54102,212.35156 q -2.37305,0 -4.10157,-1.05469 -1.71386,-1.05468 -2.65136,-2.94433 -0.92286,-1.88965 -0.92286,-4.40918 0,-2.51953 0.90821,-4.43848 0.9082,-1.91894 2.56347,-3.00293 1.66993,-1.08398 3.89649,-1.08398 1.30371,0 2.56347,0.43945 1.27442,0.42481 2.29981,1.3916 1.04004,0.95215 1.65527,2.51953 0.61524,1.56739 0.61524,3.8379 v 1.09863 h -11.83594 q 0.0586,1.58203 0.62988,2.72461 0.62989,1.27441 1.75782,1.93359 1.14257,0.64453 2.63671,0.64453 0.9668,0 1.75782,-0.27832 0.79101,-0.27832 1.3623,-0.83496 0.57129,-0.57129 0.87891,-1.40625 l 2.54883,0.70313 q -0.38086,1.23046 -1.28907,2.16796 -0.9082,0.9375 -2.25586,1.46485 -1.333,0.52734 -3.01757,0.52734 z m -4.99512,-9.87304 h 9.14062 q -0.10254,-1.11329 -0.46875,-2.05079 -0.51269,-1.24511 -1.50879,-1.94824 -0.99609,-0.71777 -2.47558,-0.71777 -1.47949,0 -2.53418,0.73242 -1.05469,0.71777 -1.61133,1.875 -0.46875,0.99609 -0.54199,2.10938 z"
         id="path104" />
      <path
         d="m 867.64648,212 v -16.37695 h 2.54883 v 2.51953 h 0.17578 q 0.45411,-1.24512 1.61133,-1.99219 1.17188,-0.76172 2.63672,-0.76172 0.29297,0 0.68848,0.0147 0.41015,0.0146 0.64453,0.0293 v 2.65136 q -0.11719,-0.0293 -0.58594,-0.0879 -0.46875,-0.0586 -0.99609,-0.0586 -1.17188,0 -2.10938,0.49805 -0.92285,0.4834 -1.45019,1.34765 -0.52735,0.84961 -0.52735,1.96289 V 212 Z"
         id="path106" />
    </g>
  </g>
  <path
     fill="#50C5FA"
     fill-rule="evenodd"
     transform="translate(152 38)"
     d="M 11.690 21.528 L 3.988 32.056 5.967 35.935 L 7.946 39.815 16.223 39.364 C 28.196 38.713, 33 38.009, 33 36.907 C 33 32.256, 22.321 11, 19.984 11 C 19.659 11, 15.926 15.738, 11.690 21.528"
     id="path10" />
</svg>
