<?xml version="1.0" encoding="UTF-8"?>
<svg xmlns="http://www.w3.org/2000/svg"
  role="img"
  aria-labelledby="title"
  viewBox="45 22 860 148">
  <title id="title">CSROCC</title>
  <path fill="#031B37" fill-rule="evenodd" d="M 112.247 33.040 C 88.780 37.257, 70.055 53.497, 61.876 76.725 C 59.013 84.855, 58.297 100.416, 60.378 109.243 C 65.618 131.468, 83.564 149.667, 106 155.512 C 116.036 158.126, 134.068 157.186, 144 153.529 C 157.565 148.535, 169.935 138.566, 176.735 127.147 L 178.970 123.394 168.520 119.102 L 158.070 114.811 152.492 120.836 C 145.947 127.905, 140.385 131.404, 132.380 133.489 C 124.569 135.524, 118.475 135.391, 110.793 133.018 C 98.910 129.347, 88.772 119.750, 84.368 108 C 81.768 101.063, 82.058 88.015, 84.978 80.500 C 88.227 72.142, 99.071 61.274, 107.500 57.929 C 116.003 54.555, 132.170 54.482, 139.405 57.785 C 142.102 59.017, 144.394 59.906, 144.499 59.762 C 144.603 59.618, 147.571 55.303, 151.094 50.172 C 158.581 39.271, 158.789 39.848, 145.819 35.561 C 136.662 32.535, 121.427 31.391, 112.247 33.040 M 240 38.752 C 221.472 43.772, 212.146 56.015, 213.215 73.915 C 213.751 82.878, 216.041 87.997, 221.868 93.262 C 228.668 99.405, 234.868 101.749, 258.306 107.035 C 265.899 108.748, 273.549 110.751, 275.306 111.487 C 282.991 114.707, 285.872 121.978, 281.828 127.946 C 278.002 133.592, 273.864 135.370, 263.486 135.824 C 248.950 136.459, 237.674 133.030, 226.741 124.648 C 224.124 122.642, 221.792 121, 221.559 121 C 221.327 121, 218.330 124.887, 214.900 129.639 L 208.664 138.277 212.082 141.151 C 217.206 145.460, 230.475 151.740, 239.500 154.129 C 251.175 157.220, 269.844 157.267, 279.622 154.231 C 296.701 148.929, 306 137.214, 306 121 C 306 107.991, 300.110 98.531, 288.607 93.062 C 285.248 91.466, 276.425 88.732, 269 86.987 C 248.072 82.071, 242.215 80.166, 238.940 77.214 C 234.974 73.638, 234.189 68.644, 236.908 64.299 C 239.713 59.816, 244.318 57.754, 252.745 57.208 C 264.557 56.441, 275.248 59.346, 286.645 66.416 L 290.790 68.988 296.927 60.027 L 303.065 51.066 299.282 48.680 C 286.373 40.535, 277.082 37.861, 260 37.375 C 249.324 37.072, 245.140 37.360, 240 38.752 M 526 38.571 C 509.129 42.986, 494.178 54.783, 486.709 69.571 C 480.712 81.444, 478.831 100.271, 482.419 112.500 C 487.295 129.118, 498.418 142.709, 513 149.865 C 522.005 154.284, 533.233 157, 542.500 157 C 558.145 157, 575.227 150.396, 586.247 140.088 C 598.448 128.675, 603.865 117.024, 604.745 100.305 C 605.741 81.375, 601.116 68.392, 588.730 55.352 C 582.832 49.143, 580.048 47.106, 572.553 43.511 C 567.574 41.122, 561.115 38.681, 558.201 38.084 C 550.809 36.572, 532.586 36.847, 526 38.571 M 688.500 38.353 C 676.149 41.508, 663.441 49.408, 655.632 58.786 C 647.745 68.258, 642.035 84.307, 642.035 97 C 642.035 119.198, 655.396 140.524, 675.283 150.066 C 700.352 162.096, 728.456 157.877, 750.366 138.795 L 754.232 135.428 745.936 128.363 L 737.640 121.299 731.613 126.155 C 722.749 133.297, 716.687 135.373, 704.479 135.443 C 695.114 135.496, 694.021 135.285, 687.784 132.215 C 679.009 127.895, 672.626 121.561, 668.795 113.376 C 659.554 93.628, 668.049 70.298, 687.782 61.233 C 702.203 54.609, 723.599 58.428, 733.982 69.481 C 735.284 70.866, 736.736 72, 737.209 72 C 737.682 72, 741.681 69.012, 746.095 65.360 L 754.121 58.720 750.811 55.285 C 745.678 49.959, 734.587 43.012, 726.676 40.170 C 720.584 37.980, 717.537 37.552, 706.500 37.333 C 698.380 37.172, 691.623 37.555, 688.500 38.353 M 829 38.571 C 808.460 43.946, 792.017 59.224, 786.025 78.500 C 783.189 87.624, 782.909 103.572, 785.419 113 C 790.395 131.689, 805.529 147.439, 824.500 153.674 C 831.195 155.874, 834.376 156.312, 844 156.358 C 857.315 156.422, 864.783 154.797, 875.705 149.458 C 882.440 146.165, 894.432 136.595, 893.788 135.026 C 893.630 134.640, 890.059 131.335, 885.853 127.683 L 878.206 121.042 874.353 124.582 C 872.234 126.529, 867.158 129.778, 863.074 131.800 C 856.011 135.298, 855.157 135.478, 845.574 135.489 C 836.307 135.499, 834.960 135.244, 828.759 132.307 C 820.432 128.362, 813.315 121.420, 809.457 113.478 C 806.824 108.057, 806.551 106.521, 806.527 97 C 806.503 87.514, 806.778 85.899, 809.374 80.278 C 812.896 72.654, 820.699 64.967, 828.747 61.196 C 833.903 58.780, 835.642 58.500, 845.500 58.500 C 858.287 58.501, 863.632 60.320, 872.813 67.798 C 878.857 72.721, 877.607 72.995, 887.854 64.500 C 891.172 61.750, 893.912 59.179, 893.943 58.787 C 893.974 58.395, 891.638 55.803, 888.750 53.027 C 882.446 46.967, 870.642 40.599, 861.886 38.535 C 853.840 36.638, 836.312 36.658, 829 38.571 M 346 96.500 L 346 154 357 154 L 368 154 368 134 L 368 114 381.750 114.033 L 395.500 114.065 408.500 134.027 L 421.500 153.988 434.250 153.994 C 441.262 153.997, 447 153.778, 447 153.507 C 447 153.235, 440.925 143.758, 433.500 132.445 C 426.075 121.133, 420.008 111.567, 420.017 111.188 C 420.026 110.810, 422.507 109.429, 425.529 108.121 C 432.600 105.060, 438.509 99.279, 441.849 92.155 C 444.198 87.145, 444.497 85.303, 444.473 76 C 444.450 66.617, 444.155 64.900, 441.701 59.857 C 438.512 53.302, 431.749 46.661, 425.402 43.854 C 416.087 39.733, 409.072 39.036, 376.750 39.017 L 346 39 346 96.500 M 527.892 60.299 C 518.164 64.397, 511.845 70.083, 507.621 78.542 C 502.637 88.524, 501.800 97.903, 504.975 108.183 C 509.929 124.221, 523.039 134.575, 539.854 135.727 C 556.891 136.895, 571.756 128.280, 578.865 113.120 C 581.211 108.115, 581.500 106.295, 581.500 96.500 C 581.500 86.650, 581.219 84.900, 578.812 79.764 C 575.380 72.441, 568.120 65.185, 560.487 61.448 C 555.213 58.866, 553.249 58.483, 544 58.228 C 534.816 57.974, 532.797 58.234, 527.892 60.299 M 368 76.500 L 368 93 388.250 92.978 C 405.833 92.959, 409.040 92.711, 412.599 91.095 C 418.316 88.498, 421.308 83.930, 421.788 77.065 C 422.274 70.110, 419.586 65.562, 413.030 62.250 C 408.847 60.137, 407.341 60, 388.288 60 L 368 60 368 76.500"/>
  <path fill="#50C5FA" fill-rule="evenodd"
    transform="translate(152 38)" d="M 11.690 21.528 L 3.988 32.056 5.967 35.935 L 7.946 39.815 16.223 39.364 C 28.196 38.713, 33 38.009, 33 36.907 C 33 32.256, 22.321 11, 19.984 11 C 19.659 11, 15.926 15.738, 11.690 21.528"/>
</svg>
